<svg width="500" height="79" viewBox="0 0 500 79" fill="none" xmlns="http://www.w3.org/2000/svg">
<path d="M52.0604 5.34465C47.5739 3.33136 42.1453 2.32326 35.7687 2.32326H0V78.9907H20.3043V53.4349H35.7687C42.1423 53.4349 47.5739 52.4297 52.0604 50.4164C56.547 48.4031 59.9708 45.5005 62.3318 41.7027C64.6928 37.9108 65.8734 33.3019 65.8734 27.8791C65.8734 22.4562 64.6928 17.8503 62.3318 14.0554C59.9708 10.2635 56.547 7.35795 52.0604 5.34465V5.34465ZM42.2042 35.8367C40.0404 37.5776 36.8315 38.4496 32.5834 38.4496H20.3072V17.3085H32.5834C36.8344 17.3085 40.0404 18.1805 42.2042 19.9215C44.368 21.6625 45.4513 24.3189 45.4513 27.8791C45.4513 31.4393 44.368 34.0928 42.2042 35.8367V35.8367Z" fill="black"/>
<path d="M135.085 43.7942C140.198 39.6894 142.757 33.7277 142.757 25.9063C142.757 18.783 140.178 13.0705 135.023 8.77158C129.868 4.47269 122.647 2.32324 113.362 2.32324H76.1738V78.9907H96.1248V50.9957H108.292L124.928 78.9907H147.358L127.06 48.0352C130.142 47.0242 132.815 45.6105 135.082 43.7942H135.085ZM96.1278 17.4244H110.529C114.463 17.4244 117.415 18.2007 119.382 19.7477C121.348 21.2975 122.335 23.7366 122.335 27.065C122.335 30.3935 121.348 32.9514 119.382 34.4983C117.415 36.0481 114.463 36.8216 110.529 36.8216H96.1278V17.4244Z" fill="black"/>
<path d="M296.409 39.843C296.409 39.843 315.359 11.3005 320.202 4.00343C320.912 2.9345 321.318 2.32037 321.318 2.32037H299.241L285.785 25.7847L272.446 2.32037H248.482L273.391 40.4223L246.948 78.9878H269.97L284.136 54.4777L298.773 78.9878H322.972L296.412 39.8401L296.409 39.843Z" fill="black"/>
<path d="M476.746 32.5256L463.642 29.623C460.177 28.8495 457.681 27.8993 456.147 26.7754C454.613 25.6543 453.845 24.2783 453.845 22.6503C453.845 21.2569 454.237 20.02 455.025 18.9337C455.812 17.8502 457.11 16.9986 458.92 16.3787C460.731 15.7616 463.092 15.4488 466.003 15.4488C470.961 15.4488 475.389 16.3207 479.283 18.0617C483.178 19.8027 486.817 22.4185 490.202 25.9034L500 13.0096C495.908 8.75131 491.089 5.51556 485.539 3.31107C479.99 1.10369 473.596 0 466.357 0C459.118 0 453.33 1.08631 448.296 3.25314C443.259 5.42286 439.402 8.38342 436.726 12.1406C434.05 15.8978 432.713 20.1764 432.713 24.9764C432.713 29.2348 433.697 32.7805 435.663 35.6049C437.63 38.4322 440.326 40.6772 443.75 42.3429C447.174 44.0086 451.086 45.344 455.496 46.3521L469.898 49.4894C473.204 50.2657 475.448 51.213 476.628 52.3341C477.809 53.458 478.4 54.8311 478.4 56.4592C478.4 57.9307 477.968 59.2082 477.102 60.2917C476.234 61.378 474.876 62.1891 473.028 62.7308C471.179 63.2754 468.877 63.5448 466.121 63.5448C462.58 63.5448 459.097 63.0436 455.673 62.0355C452.249 61.0303 449.102 59.6544 446.229 57.9105C443.356 56.1695 440.936 54.1736 438.969 51.9285L429.172 65.2887C431.768 68.0001 434.957 70.3987 438.734 72.4902C442.511 74.5817 446.762 76.1894 451.484 77.3105C456.206 78.4316 461.164 78.9936 466.36 78.9936C472.733 78.9936 478.4 78.0434 483.358 76.1489C488.315 74.2515 492.213 71.4271 495.045 67.6699C497.877 63.9156 499.293 59.327 499.293 53.9042C499.293 48.4813 497.483 43.7218 493.865 40.3122C490.244 36.9056 484.538 34.3129 476.749 32.5285L476.746 32.5256Z" fill="black"/>
<path d="M418.87 27.2823H334.788V78.9907H418.87V27.2823Z" fill="black"/>
<path d="M417.037 3.07263L333.275 10.2836L334.787 27.2838L418.549 20.0729L417.037 3.07263Z" fill="black"/>
<path d="M345.298 65.1411V46.6506H349.349L349.587 51.3637L349.057 50.8162C349.181 49.9472 349.455 49.1853 349.879 48.5249C350.303 47.8644 350.85 47.3429 351.518 46.9635C352.19 46.5811 352.955 46.3899 353.821 46.3899C354.916 46.3899 355.867 46.6535 356.679 47.1836C357.492 47.7137 358.122 48.4785 358.572 49.475C359.022 50.4744 359.246 51.6853 359.246 53.1076C359.246 54.53 359.017 55.7553 358.557 56.7808C358.098 57.8063 357.459 58.5855 356.638 59.1243C355.817 59.6632 354.86 59.9326 353.768 59.9326C352.566 59.9326 351.598 59.582 350.856 58.8781C350.114 58.1742 349.62 57.2849 349.375 56.2101L349.799 55.5844V65.144H345.301L345.298 65.1411ZM352.231 56.6765C353.008 56.6765 353.614 56.3955 354.056 55.8307C354.498 55.2658 354.718 54.3764 354.718 53.1598C354.718 51.9431 354.503 51.0538 354.071 50.4918C353.638 49.9269 353.035 49.6459 352.257 49.6459C351.763 49.6459 351.33 49.7792 350.959 50.0486C350.588 50.318 350.303 50.712 350.099 51.2334C349.896 51.7548 349.796 52.3979 349.796 53.1598C349.796 53.9216 349.887 54.5184 350.073 55.0485C350.258 55.5786 350.535 55.9813 350.906 56.2594C351.277 56.5375 351.719 56.6765 352.231 56.6765V56.6765Z" fill="white"/>
<path d="M361.893 59.6718V46.6506H365.864L366.049 49.4634C366.385 48.4901 366.883 47.7369 367.545 47.1981C368.207 46.6593 369.049 46.3899 370.074 46.3899C370.409 46.3899 370.695 46.416 370.933 46.4681C371.172 46.5203 371.36 46.5898 371.502 46.6767L371.051 50.3238C370.875 50.2543 370.651 50.1992 370.377 50.1558C370.103 50.1123 369.773 50.0891 369.385 50.0891C368.855 50.0891 368.36 50.2021 367.904 50.4281C367.445 50.654 367.08 50.9872 366.806 51.4304C366.532 51.8736 366.397 52.4327 366.397 53.1105V59.6747H361.898L361.893 59.6718Z" fill="white"/>
<path d="M379.412 46.3899C380.804 46.3899 382.026 46.6535 383.077 47.1836C384.128 47.7137 384.946 48.4872 385.538 49.5011C386.13 50.5179 386.424 51.7374 386.424 53.1598C386.424 54.5821 386.13 55.8046 385.538 56.8185C384.946 57.8353 384.125 58.6058 383.077 59.1359C382.026 59.6661 380.804 59.9297 379.412 59.9297C378.019 59.9297 376.845 59.6661 375.785 59.1359C374.725 58.6058 373.901 57.8353 373.309 56.8185C372.717 55.8017 372.423 54.5821 372.423 53.1598C372.423 51.7374 372.717 50.515 373.309 49.5011C373.901 48.4843 374.725 47.7137 375.785 47.1836C376.845 46.6535 378.052 46.3899 379.412 46.3899ZM379.412 49.5416C378.899 49.5416 378.458 49.6633 378.09 49.9066C377.719 50.15 377.436 50.541 377.242 51.0799C377.048 51.6187 376.951 52.3139 376.951 53.1627C376.951 54.0114 377.048 54.7038 377.242 55.2339C377.436 55.764 377.719 56.1551 378.09 56.4071C378.461 56.6591 378.902 56.7837 379.412 56.7837C379.921 56.7837 380.392 56.6591 380.763 56.4071C381.134 56.1551 381.417 55.764 381.611 55.2339C381.805 54.7038 381.902 54.0143 381.902 53.1627C381.902 52.311 381.805 51.6187 381.611 51.0799C381.417 50.541 381.134 50.15 380.763 49.9066C380.392 49.6633 379.942 49.5416 379.412 49.5416Z" fill="white"/>
<path d="M393.838 59.9325C392.743 59.9325 391.786 59.6689 390.968 59.1388C390.146 58.6087 389.513 57.841 389.063 56.8329C388.612 55.8248 388.389 54.6198 388.389 53.2119C388.389 51.804 388.621 50.5208 389.089 49.5127C389.557 48.5046 390.211 47.734 391.047 47.1952C391.886 46.6564 392.852 46.387 393.947 46.387C395.148 46.387 396.114 46.7462 396.844 47.4675C397.577 48.1888 398.048 49.1042 398.26 50.2137L397.836 50.7612V41.1263H402.334V59.6689H398.31L398.018 55.2426L398.548 55.6337C398.442 56.5027 398.174 57.2559 397.742 57.899C397.309 58.5421 396.761 59.0403 396.102 59.3966C395.439 59.7529 394.686 59.9296 393.838 59.9296V59.9325ZM395.398 56.6765C395.91 56.6765 396.346 56.5433 396.708 56.2738C397.07 56.0044 397.347 55.6018 397.541 55.063C397.736 54.5242 397.833 53.8637 397.833 53.0844C397.833 52.3544 397.742 51.7345 397.556 51.2218C397.371 50.709 397.097 50.318 396.735 50.0486C396.373 49.7792 395.937 49.6459 395.425 49.6459C394.647 49.6459 394.035 49.9298 393.585 50.4918C393.134 51.0567 392.911 51.946 392.911 53.1598C392.911 54.3735 393.131 55.2658 393.573 55.8306C394.015 56.3955 394.624 56.6765 395.398 56.6765V56.6765Z" fill="white"/>
<path d="M406.276 59.6719C407.425 59.6719 408.357 58.7549 408.357 57.6238C408.357 56.4927 407.425 55.5757 406.276 55.5757C405.126 55.5757 404.194 56.4927 404.194 57.6238C404.194 58.7549 405.126 59.6719 406.276 59.6719Z" fill="white"/>
<path d="M185.052 2.32324C185.052 2.32324 178.414 20.9064 171.672 39.7734C164.722 59.2285 157.662 78.9907 157.662 78.9907H178.084L183.548 61.6821H210.391L215.743 78.9907H236.639L209.372 2.32324H185.052ZM187.84 48.0902L193.669 29.62L196.858 17.6561H197.093L200.517 29.7359L206.193 48.0902H187.84V48.0902Z" fill="black"/>
</svg>
